# xmcd CD database file
#
# Track frame offsets:
#	150
#	25850
#	44798
#	68683
#	93635
#	126945
#	151025
#	180008
#	207240
#	233345
#	255270
#	284213
#
# Disc length: 4157 seconds
#
# Revision: 0
# Processed by: cddbd v1.5.1PL0 Copyright (c) Steve Scherf et al.
# Submitted via: CDex 1.51
#
DISCID=9b103b0c
DTITLE=The Earth Quartet - Imperfect Completeness
DYEAR=2004
DGENRE=Jazz
TTITLE0=Mr. G
TTITLE1=Double Down
TTITLE2=Earth Ship
TTITLE3=Entropy
TTITLE4=Wandering In Forest
TTITLE5=Circulation
TTITLE6=Weightlessness
TTITLE7=The Lullaby Of Peach
TTITLE8=A Cat On The Catwalk
TTITLE9=Escape
TTITLE10=Merman
TTITLE11=Minotaur
EXTD=YEAR: 2004
EXTT0=
EXTT1=
EXTT2=
EXTT3=
EXTT4=
EXTT5=
EXTT6=
EXTT7=
EXTT8=
EXTT9=
EXTT10=
EXTT11=
PLAYORDER=
